<svg xmlns="http://www.w3.org/2000/svg" viewBox="0 0 512 512">
  <rect width="512" height="512" rx="64" fill="#0a0a0f"/>
  <g transform="translate(56, 56)">
    <!-- 4x4 grid representing the pad grid -->
    <rect x="0" y="0" width="88" height="88" rx="12" fill="#1a1a2e" stroke="#6c5ce7" stroke-width="3"/>
    <rect x="104" y="0" width="88" height="88" rx="12" fill="#1a1a2e" stroke="#6c5ce7" stroke-width="3"/>
    <rect x="208" y="0" width="88" height="88" rx="12" fill="#6c5ce7" stroke="#6c5ce7" stroke-width="3"/>
    <rect x="312" y="0" width="88" height="88" rx="12" fill="#1a1a2e" stroke="#6c5ce7" stroke-width="3"/>
    <rect x="0" y="104" width="88" height="88" rx="12" fill="#1a1a2e" stroke="#6c5ce7" stroke-width="3"/>
    <rect x="104" y="104" width="88" height="88" rx="12" fill="#6c5ce7" stroke="#6c5ce7" stroke-width="3"/>
    <rect x="208" y="104" width="88" height="88" rx="12" fill="#1a1a2e" stroke="#6c5ce7" stroke-width="3"/>
    <rect x="312" y="104" width="88" height="88" rx="12" fill="#1a1a2e" stroke="#6c5ce7" stroke-width="3"/>
    <rect x="0" y="208" width="88" height="88" rx="12" fill="#6c5ce7" stroke="#6c5ce7" stroke-width="3"/>
    <rect x="104" y="208" width="88" height="88" rx="12" fill="#1a1a2e" stroke="#6c5ce7" stroke-width="3"/>
    <rect x="208" y="208" width="88" height="88" rx="12" fill="#1a1a2e" stroke="#6c5ce7" stroke-width="3"/>
    <rect x="312" y="208" width="88" height="88" rx="12" fill="#1a1a2e" stroke="#6c5ce7" stroke-width="3"/>
    <rect x="0" y="312" width="88" height="88" rx="12" fill="#1a1a2e" stroke="#6c5ce7" stroke-width="3"/>
    <rect x="104" y="312" width="88" height="88" rx="12" fill="#1a1a2e" stroke="#6c5ce7" stroke-width="3"/>
    <rect x="208" y="312" width="88" height="88" rx="12" fill="#1a1a2e" stroke="#6c5ce7" stroke-width="3"/>
    <rect x="312" y="312" width="88" height="88" rx="12" fill="#1a1a2e" stroke="#6c5ce7" stroke-width="3"/>
  </g>
</svg>
